<?xml version="1.0" encoding="utf-8"?>
<!-- Generator: Adobe Illustrator 24.0.2, SVG Export Plug-In . SVG Version: 6.00 Build 0)  -->
<svg version="1.1" id="Layer_1" xmlns="http://www.w3.org/2000/svg" xmlns:xlink="http://www.w3.org/1999/xlink" x="0px" y="0px"
	 viewBox="0 0 841.9 595.3" style="enable-background:new 0 0 841.9 595.3;" xml:space="preserve">
<style type="text/css">
	.st0{fill:#EBEBEB;}
	.st1{fill:#FFFFFF;}
</style>
<path d="M286.7,492.1L256.8,157h328.3l-29.9,335.1l-134.5,37.3L286.7,492.1z"/>
<path d="M420.9,500.9l108.6-30.1l25.6-286.4H420.9V500.9z"/>
<g>
	<path class="st0" d="M420.9,308.7h-54.4l-3.8-42.1h58.1v-41.1H317.9l1,11L329,349.8h92V308.7z M420.9,415.5l-0.2,0L375,403.1
		l-2.9-32.8h-41.3l5.8,64.5l84.2,23.4l0.2-0.1V415.5z"/>
</g>
<path d="M287.3,65.9h20.9v20.6h19.1V65.9h20.9v62.5h-20.9v-20.9h-19.1v20.9h-20.9L287.3,65.9L287.3,65.9z M375.7,86.7h-18.4V65.9
	H415v20.7h-18.4v41.8h-20.9L375.7,86.7z M424.1,65.9h21.8l13.4,22l13.4-22h21.8v62.5h-20.8v-31l-14.4,22.2h-0.4l-14.4-22.2v31h-20.4
	L424.1,65.9L424.1,65.9z M504.9,65.9h20.9v41.8h29.4v20.7h-50.3V65.9z"/>
<g>
	<path class="st1" d="M420.8,308.7v41.1h50.6l-4.8,53.3l-45.8,12.4v42.8l84.3-23.4l0.6-6.9l9.7-108.2l1-11h-11.1L420.8,308.7z
		 M420.8,225.5v41.1h99.3l0.8-9.2l1.9-20.8l1-11L420.8,225.5z"/>
</g>
</svg>
