<?xml version="1.0" encoding="utf-8"?>
<!-- Generator: Adobe Illustrator 24.0.2, SVG Export Plug-In . SVG Version: 6.00 Build 0)  -->
<svg version="1.1" id="Layer_1" xmlns="http://www.w3.org/2000/svg" xmlns:xlink="http://www.w3.org/1999/xlink" x="0px" y="0px"
	 viewBox="0 0 841.9 595.3" style="enable-background:new 0 0 841.9 595.3;" xml:space="preserve">
<style type="text/css">
	.st0{fill-rule:evenodd;clip-rule:evenodd;}
</style>
<path class="st0" d="M275.1,99c-28.5,0-49.5,24.9-48.6,51.9c0.9,26-0.3,59.6-8.7,87c-8.5,27.5-22.8,44.9-46.3,47.1v25.2
	c23.4,2.2,37.8,19.7,46.3,47.1c8.5,27.4,9.6,61,8.7,87c-0.9,27,20.1,51.9,48.6,51.9h291.7c28.5,0,49.5-24.9,48.6-51.9
	c-0.9-26,0.3-59.6,8.7-87c8.5-27.5,22.8-44.9,46.3-47.1V285c-23.4-2.2-37.8-19.7-46.3-47.1c-8.5-27.4-9.6-61-8.7-87
	c0.9-27-20.1-51.9-48.6-51.9H275.1L275.1,99z M509.7,343.6c0,37.2-27.7,59.8-73.8,59.8h-78.4c-4.7,0-8.5-3.8-8.5-8.5l0,0V200.4
	c0-4.7,3.8-8.5,8.5-8.5h77.9c38.4,0,63.6,20.8,63.6,52.7c0,22.4-17,42.5-38.6,46v1.2C489.9,295.1,509.7,315.4,509.7,343.6
	L509.7,343.6z M427.4,218.8h-44.7v63.1h37.6c29.1,0,45.1-11.7,45.1-32.7C465.5,229.6,451.7,218.8,427.4,218.8L427.4,218.8z
	 M382.7,307v69.6H429c30.3,0,46.4-12.2,46.4-35s-16.5-34.6-48.3-34.6L382.7,307L382.7,307z"/>
</svg>
